<?xml version="1.0" encoding="UTF-8"?>
<!DOCTYPE svg PUBLIC "-//W3C//DTD SVG 1.1//EN" "http://www.w3.org/Graphics/SVG/1.1/DTD/svg11.dtd">
<svg xmlns="http://www.w3.org/2000/svg" version="1.1" width="512px" height="512px" style="shape-rendering:geometricPrecision; text-rendering:geometricPrecision; image-rendering:optimizeQuality; fill-rule:evenodd; clip-rule:evenodd" xmlns:xlink="http://www.w3.org/1999/xlink">
<g><path style="opacity:0.882" fill="#001847" d="M 14.5,-0.5 C 140.833,-0.5 267.167,-0.5 393.5,-0.5C 395.673,3.23965 396.006,7.23965 394.5,11.5C 386.59,30.49 378.256,49.3233 369.5,68C 378.08,77.3069 385.58,87.4736 392,98.5C 392.5,98 393,97.5 393.5,97C 412.685,94.9969 431.852,92.8303 451,90.5C 456.027,90.2772 460.527,91.6106 464.5,94.5C 475.528,125.244 486.028,156.244 496,187.5C 496.667,192.5 496.667,197.5 496,202.5C 477.029,214.718 457.696,226.385 438,237.5C 438.458,249.751 438.625,262.084 438.5,274.5C 442.981,277.317 447.814,279.65 453,281.5C 466.093,289.393 479.26,297.227 492.5,305C 494.706,306.684 496.206,308.851 497,311.5C 497.667,315.5 497.667,319.5 497,323.5C 488.189,351.098 479.689,378.765 471.5,406.5C 469.833,411.837 466.833,416.17 462.5,419.5C 458.833,419.833 455.167,420.167 451.5,420.5C 432.438,418.852 413.438,416.852 394.5,414.5C 389.53,421.288 384.864,428.288 380.5,435.5C 374.039,440.306 372.872,446.306 377,453.5C 385.373,469.792 392.873,486.459 399.5,503.5C 398.607,506.084 398.274,508.751 398.5,511.5C 330.167,511.5 261.833,511.5 193.5,511.5C 202.265,507.226 211.099,502.892 220,498.5C 239.324,484.97 251.157,466.47 255.5,443C 253.808,441.599 253.141,439.766 253.5,437.5C 264.206,438.523 274.039,436.189 283,430.5C 285.164,428.382 287.664,426.715 290.5,425.5C 304.179,407.468 309.512,387.135 306.5,364.5C 305.439,356.994 303.772,349.661 301.5,342.5C 306.873,339.637 312.206,336.471 317.5,333C 331.191,328.261 345.191,327.261 359.5,330C 364.686,331.939 370.019,333.439 375.5,334.5C 399.244,255.762 387.911,182.762 341.5,115.5C 302.599,63.5558 250.932,30.8891 186.5,17.5C 155.976,12.8451 125.642,13.6784 95.5,20C 148.079,23.4624 196.079,39.7958 239.5,69C 244.258,72.1729 248.925,75.5063 253.5,79C 256.537,81.3804 258.871,84.3804 260.5,88C 267.923,104.06 272.59,120.894 274.5,138.5C 272.599,138.567 270.766,138.233 269,137.5C 231.59,113.222 191.09,95.5557 147.5,84.5C 125.043,80.3595 102.377,77.0262 79.5,74.5C 58.1578,73.6597 36.8245,72.6597 15.5,71.5C 14.51,47.5451 14.1767,23.5451 14.5,-0.5 Z"/></g>
<g><path style="opacity:0.881" fill="#001847" d="M 15.5,79.5 C 54.0448,79.5212 92.2115,83.1879 130,90.5C 140.125,93.4888 150.291,96.1555 160.5,98.5C 158.151,103.344 155.151,107.844 151.5,112C 150.434,115.094 149.768,118.26 149.5,121.5C 105.565,107.939 60.5649,99.6056 14.5,96.5C 14.5489,93.6257 14.2156,90.7923 13.5,88C 14.0927,85.1303 14.7593,82.297 15.5,79.5 Z"/></g>
<g><path style="opacity:0.882" fill="#001847" d="M 270.5,95.5 C 301.953,102.629 327.453,118.629 347,143.5C 362.548,166.664 367.214,191.998 361,219.5C 357.389,228.599 351.556,235.765 343.5,241C 340.833,241.667 338.167,241.667 335.5,241C 334.484,240.481 333.818,239.647 333.5,238.5C 340.472,230.24 342.306,220.907 339,210.5C 336.599,207.61 334.433,204.61 332.5,201.5C 316.04,189.006 297.706,180.339 277.5,175.5C 277.458,170.28 278.292,165.28 280,160.5C 280.667,150.833 280.667,141.167 280,131.5C 277.936,119.152 274.769,107.152 270.5,95.5 Z"/></g>
<g><path style="opacity:0.881" fill="#001847" d="M 15.5,102.5 C 52.1965,106.266 88.5299,112.266 124.5,120.5C 127.449,121.985 130.449,123.318 133.5,124.5C 132.531,132.444 132.198,140.444 132.5,148.5C 94.6404,138.409 56.307,130.243 17.5,124C 16.3333,123.5 15.5,122.667 15,121.5C 12.8779,115.067 13.0445,108.734 15.5,102.5 Z"/></g>
<g><path style="opacity:0.88" fill="#001847" d="M 176.5,103.5 C 199.036,101.873 209.869,112.206 209,134.5C 204.957,146.788 196.457,153.788 183.5,155.5C 165.405,152.41 157.072,141.743 158.5,123.5C 161.501,113.846 167.501,107.18 176.5,103.5 Z M 192.5,115.5 C 198.34,117.223 200.173,120.889 198,126.5C 196.636,127.696 195.136,128.696 193.5,129.5C 191.944,128.453 190.277,127.786 188.5,127.5C 186.497,122.211 187.83,118.211 192.5,115.5 Z"/></g>
<g><path style="opacity:0.881" fill="#001847" d="M 218.5,122.5 C 221.951,122.538 225.284,123.205 228.5,124.5C 243.77,131.591 258.77,138.924 273.5,146.5C 273.833,148 274.167,149.5 274.5,151C 272.753,163.652 270.42,176.152 267.5,188.5C 252.88,183.531 237.88,180.364 222.5,179C 212.167,178.333 201.833,178.333 191.5,179C 182.288,181.03 172.955,182.03 163.5,182C 143.99,168.681 135.99,150.181 139.5,126.5C 142.167,126.833 144.833,127.167 147.5,127.5C 150.186,149.019 162.353,161.019 184,163.5C 208.154,160.199 219.654,146.532 218.5,122.5 Z"/></g>
<g><path style="opacity:0.882" fill="#001847" d="M 16.5,131.5 C 35.5851,135.193 54.7518,138.527 74,141.5C 93.6959,145.451 113.196,149.951 132.5,155C 133.579,155.956 134.745,156.789 136,157.5C 136.553,161.16 137.886,164.494 140,167.5C 144.203,173.93 148.87,179.93 154,185.5C 154.483,186.448 154.649,187.448 154.5,188.5C 146.508,189.832 138.508,189.832 130.5,188.5C 117.796,186.185 105.129,183.685 92.5,181C 68.2198,173.407 43.8865,165.907 19.5,158.5C 17.864,157.696 16.364,156.696 15,155.5C 12.5457,147.191 13.0457,139.191 16.5,131.5 Z"/></g>
<g><path style="opacity:0.882" fill="#001847" d="M 17.5,167.5 C 20.1933,167.572 22.8599,167.905 25.5,168.5C 48.7512,175.146 72.0845,181.479 95.5,187.5C 108.419,190.049 121.419,192.049 134.5,193.5C 134.833,194.167 135.167,194.833 135.5,195.5C 129.076,199.672 122.743,204.005 116.5,208.5C 83.4549,209.53 50.4549,211.03 17.5,213C 15.9544,211.56 15.121,209.727 15,207.5C 13.5481,196.536 13.2148,185.536 14,174.5C 14.139,171.555 15.3057,169.221 17.5,167.5 Z"/></g>
<g><path style="opacity:0.88" fill="#001847" d="M 193.5,184.5 C 216.878,183.183 239.545,186.183 261.5,193.5C 261.833,194.167 262.167,194.833 262.5,195.5C 249.693,197.021 237.693,200.854 226.5,207C 223.418,208.872 220.751,211.205 218.5,214C 217.552,214.483 216.552,214.649 215.5,214.5C 212.586,218.929 209.42,223.263 206,227.5C 203.849,231.793 201.849,236.126 200,240.5C 198.588,234.998 196.588,229.665 194,224.5C 191.167,222.333 188.667,219.833 186.5,217C 179.374,213.615 171.874,211.449 164,210.5C 150.686,210.114 137.52,209.28 124.5,208C 128.043,204.415 132.043,201.415 136.5,199C 143.959,196.184 151.292,193.184 158.5,190C 170.315,188.161 181.982,186.328 193.5,184.5 Z"/></g>
<g><path style="opacity:0.881" fill="#001847" d="M 239.5,216.5 C 238.972,215.153 238.805,213.819 239,212.5C 241.658,210.003 244.658,208.003 248,206.5C 255.007,204.218 262.173,202.884 269.5,202.5C 270.712,195.32 272.379,188.32 274.5,181.5C 282.464,183.826 290.464,186.159 298.5,188.5C 300.053,198.064 297.72,206.564 291.5,214C 286.007,214.166 280.673,214.999 275.5,216.5C 277.743,223.775 280.743,230.775 284.5,237.5C 287.737,246.08 290.07,254.914 291.5,264C 291.6,269.459 289.6,273.792 285.5,277C 279.888,278.131 274.221,278.631 268.5,278.5C 268.768,281.119 268.435,283.619 267.5,286C 268.99,286.745 269.99,287.912 270.5,289.5C 268.693,293.301 265.693,295.634 261.5,296.5C 263.607,299.275 263.941,302.275 262.5,305.5C 258.842,307.61 255.176,309.777 251.5,312C 247.798,312.681 244.131,312.515 240.5,311.5C 218.915,303.716 207.915,288.216 207.5,265C 207.264,246.651 213.931,231.484 227.5,219.5C 231.181,217.246 235.181,216.246 239.5,216.5 Z M 239.5,216.5 C 245.309,217.214 250.975,218.547 256.5,220.5C 258.516,219.294 260.516,219.294 262.5,220.5C 260.257,221.474 257.924,221.808 255.5,221.5C 255.62,223.199 255.954,224.865 256.5,226.5C 256.547,228 255.881,229 254.5,229.5C 249.465,228.099 244.465,226.599 239.5,225C 242.168,224.433 244.834,223.933 247.5,223.5C 247.5,222.167 247.5,220.833 247.5,219.5C 244.189,219.693 241.522,218.693 239.5,216.5 Z"/></g>
<g><path style="opacity:0.882" fill="#001847" d="M 81.5,213.5 C 107.602,212.965 133.602,213.965 159.5,216.5C 159.833,217 160.167,217.5 160.5,218C 149.315,226.948 146.315,238.281 151.5,252C 152.828,254.167 154.494,256 156.5,257.5C 155.333,257.833 154.167,258.167 153,258.5C 141.477,256.044 129.977,253.877 118.5,252C 108.105,251.367 97.7717,250.2 87.5,248.5C 63.7988,247.897 40.1321,247.23 16.5,246.5C 14.1372,242.54 13.1372,238.206 13.5,233.5C 13.5284,229.764 14.0284,226.097 15,222.5C 15.9246,221.953 16.7579,221.287 17.5,220.5C 38.8593,217.193 60.1926,214.859 81.5,213.5 Z"/></g>
<g><path style="opacity:0.879" fill="#001747" d="M 167.5,221.5 C 182.331,218.934 190.664,224.934 192.5,239.5C 190.411,253.894 182.078,260.061 167.5,258C 158.858,255.034 154.858,249.034 155.5,240C 155.472,236.41 155.972,232.91 157,229.5C 160.168,226.136 163.668,223.469 167.5,221.5 Z M 170.5,231.5 C 174.516,231.28 177.849,232.613 180.5,235.5C 180.167,235.833 179.833,236.167 179.5,236.5C 175.555,235.732 171.555,235.232 167.5,235C 169.063,234.241 170.063,233.074 170.5,231.5 Z M 167.5,243.5 C 171.5,243.5 175.5,243.5 179.5,243.5C 179.5,244.5 179.5,245.5 179.5,246.5C 175.733,247.604 172.067,247.437 168.5,246C 167.748,245.329 167.414,244.496 167.5,243.5 Z"/></g>
<g><path style="opacity:0.882" fill="#001847" d="M 96.5,260.5 C 95.1266,260.343 93.7932,260.51 92.5,261C 84.7819,265.091 76.9486,268.925 69,272.5C 52.504,282.708 35.8373,292.374 19,301.5C 17.3419,301.325 16.0086,300.658 15,299.5C 14.3333,285.167 14.3333,270.833 15,256.5C 15.9246,255.953 16.7579,255.287 17.5,254.5C 41.4608,252.085 65.4608,251.919 89.5,254C 93.8978,254.847 98.2311,256.013 102.5,257.5C 107.1,256.557 111.767,256.223 116.5,256.5C 116.657,257.873 116.49,259.207 116,260.5C 111.7,265.801 107.034,270.801 102,275.5C 90.7144,289.945 79.8811,304.612 69.5,319.5C 68.3764,321.369 67.5431,323.369 67,325.5C 62.6819,331.452 58.3486,337.452 54,343.5C 44.3818,360.344 34.2151,376.844 23.5,393C 22.8524,394.44 22.5191,395.94 22.5,397.5C 19.3484,398.041 16.8484,397.041 15,394.5C 6.81352,371.198 5.64685,347.531 11.5,323.5C 13.1504,321.05 14.3171,318.383 15,315.5C 23.5649,307.918 32.8983,301.584 43,296.5C 44.4782,295.022 45.9782,293.522 47.5,292C 63.6521,282.248 79.6521,272.415 95.5,262.5C 96.2975,262.043 96.6309,261.376 96.5,260.5 Z M 96.5,260.5 C 97.3149,259.163 98.4815,258.163 100,257.5C 99.967,259.478 98.8004,260.478 96.5,260.5 Z"/></g>
<g><path style="opacity:0.882" fill="#001847" d="M 124.5,259.5 C 128.514,259.334 132.514,259.501 136.5,260C 137.081,260.893 137.415,261.893 137.5,263C 131.991,279.192 126.325,295.359 120.5,311.5C 104.479,370.691 96.4794,431.024 96.5,492.5C 74.9966,494.846 53.9966,492.513 33.5,485.5C 29.1623,483.791 25.1623,481.624 21.5,479C 18.2905,475.158 14.7905,471.658 11,468.5C 6.93513,463.364 6.10179,457.864 8.5,452C 31.9959,400.871 59.1625,352.038 90,305.5C 101.634,290.353 113.134,275.019 124.5,259.5 Z"/></g>
<g><path style="opacity:0.882" fill="#001847" d="M 144.5,262.5 C 151.423,262.819 158.089,264.153 164.5,266.5C 164.142,287.526 164.642,308.526 166,329.5C 170.835,357.886 181.835,383.552 199,406.5C 211.049,419.977 225.049,430.977 241,439.5C 239.923,459.216 231.257,474.55 215,485.5C 191.789,498.974 166.623,504.807 139.5,503C 132.648,502.798 125.982,501.965 119.5,500.5C 114.385,434.89 117.885,369.89 130,305.5C 132.653,298.033 134.819,290.366 136.5,282.5C 139.731,276.042 142.397,269.375 144.5,262.5 Z"/></g>
<g><path style="opacity:0.882" fill="#001847" d="M 194.5,250.5 C 195.833,250.5 197.167,250.5 198.5,250.5C 196.467,266.885 200.3,281.552 210,294.5C 211.413,296.652 212.246,298.986 212.5,301.5C 210.473,301.662 208.473,301.495 206.5,301C 199.844,295.344 194.178,288.844 189.5,281.5C 188.453,282.922 188.453,284.422 189.5,286C 191.808,289.125 194.142,292.292 196.5,295.5C 199.833,297.5 202.5,300.167 204.5,303.5C 218.219,314.023 233.886,318.856 251.5,318C 255.847,321.786 260.68,324.953 266,327.5C 272.472,328.649 278.972,329.649 285.5,330.5C 285.833,331.167 286.167,331.833 286.5,332.5C 285.334,335.074 283.667,337.241 281.5,339C 276.035,341.785 270.369,344.118 264.5,346C 258.5,346.667 252.5,346.667 246.5,346C 239.66,344.286 232.994,341.953 226.5,339C 202.158,324.77 185.158,304.27 175.5,277.5C 175.167,278.167 174.833,278.833 174.5,279.5C 185.7,314.191 208.033,338.358 241.5,352C 252.272,355.223 263.272,356.223 274.5,355C 281.506,352.999 288.506,351.166 295.5,349.5C 301.603,378.159 294.603,402.826 274.5,423.5C 270.906,425.342 267.239,427.008 263.5,428.5C 253.925,426.362 244.925,422.862 236.5,418C 213.858,402.685 196.524,382.685 184.5,358C 171.242,329.404 165.242,299.238 166.5,267.5C 168.167,267.5 169.833,267.5 171.5,267.5C 172.022,270.568 172.855,273.568 174,276.5C 174.044,273.525 173.877,270.525 173.5,267.5C 176.167,267.5 178.833,267.5 181.5,267.5C 181.238,266.022 181.571,264.689 182.5,263.5C 185.833,261.167 189.167,258.833 192.5,256.5C 193.768,254.696 194.435,252.696 194.5,250.5 Z M 181.5,268.5 C 183.185,269.184 184.185,270.517 184.5,272.5C 184.167,272.833 183.833,273.167 183.5,273.5C 182.438,271.978 181.771,270.312 181.5,268.5 Z M 184.5,274.5 C 186.185,275.184 187.185,276.517 187.5,278.5C 187.167,278.833 186.833,279.167 186.5,279.5C 185.438,277.978 184.771,276.312 184.5,274.5 Z"/></g>
<g><path style="opacity:0.884" fill="#001747" d="M 68.5,511.5 C 50.5,511.5 32.5,511.5 14.5,511.5C 14.5,504.833 14.5,498.167 14.5,491.5C 16.4008,491.433 18.2341,491.767 20,492.5C 25.9051,495.657 31.9051,498.657 38,501.5C 48.4646,504.665 58.6313,507.998 68.5,511.5 Z"/></g>
<g><path style="opacity:0.047" fill="#000a25" d="M 105.5,511.5 C 104.167,511.5 102.833,511.5 101.5,511.5C 101.62,510.414 102.287,509.747 103.5,509.5C 104.713,509.747 105.38,510.414 105.5,511.5 Z"/></g>
</svg>
